<svg width="614" height="378" viewBox="0 0 614 378" fill="none" xmlns="http://www.w3.org/2000/svg">
<g clip-path="url(#clip0_517_13)">
<path opacity="0.1" d="M614.001 242.567C614.011 252.8 612.774 262.995 610.315 272.928C609.488 276.275 608.527 279.552 607.432 282.76C606.093 286.719 604.541 290.603 602.782 294.395C601.896 296.314 600.959 298.194 599.972 300.036C599.989 310.529 597.828 320.911 593.628 330.527C586.036 347.779 572.497 361.728 555.479 369.833C544.839 374.909 533.211 377.579 521.423 377.652H116.559C98.5454 377.691 80.8433 372.958 65.252 363.937L65.0122 363.801C62.7915 362.502 60.6264 361.125 58.5168 359.673C53.7704 356.394 49.3112 352.717 45.1871 348.684C39.6052 343.229 34.6866 337.134 30.5333 330.527C20.7787 315.038 15.6112 297.102 15.6293 278.798C5.75062 261.465 -0.00976562 240.701 -0.00976562 218.389C-0.00976562 190.239 9.1443 164.56 24.1839 145.12C27.3193 141.059 30.7538 137.238 34.4587 133.688C38.1143 130.176 42.0434 126.96 46.2089 124.07C49.5416 121.756 53.0246 119.666 56.6349 117.814C58.1415 117.048 59.6533 116.324 61.1911 115.651C62.5413 115.052 63.9071 114.494 65.2885 113.967C66.9463 113.338 68.6249 112.76 70.3243 112.231C72.0238 111.703 73.7006 111.241 75.3549 110.845C77.7876 110.25 80.2621 109.767 82.7782 109.395C84.8634 109.088 86.9486 108.874 89.0338 108.713C90.6916 108.587 92.365 108.52 94.0488 108.499H94.961C96.8169 108.499 98.6623 108.572 100.492 108.697C100.685 108.311 100.893 107.92 101.086 107.54C101.816 106.148 102.572 104.761 103.333 103.406C103.331 103.394 103.331 103.381 103.333 103.369C103.463 103.129 103.594 102.895 103.729 102.665C104.344 101.555 104.986 100.455 105.643 99.3656C105.945 98.8443 106.242 98.3543 106.55 97.8642C106.615 97.7425 106.686 97.6242 106.763 97.5098C107.076 96.9885 107.394 96.4672 107.717 95.9459C109.326 93.3741 111 90.8475 112.737 88.3661L113.181 87.7301C113.452 87.3444 113.702 86.969 114.004 86.5833C114.724 85.5772 115.464 84.5658 116.209 83.5754C116.731 82.8664 117.252 82.1626 117.815 81.4902C119.17 79.7525 120.56 78.0148 121.985 76.2771C123.41 74.5395 124.891 72.8244 126.427 71.1319C126.635 70.8973 126.844 70.6679 127.063 70.4386L129.289 68.0093C129.398 67.8946 129.492 67.7903 129.596 67.6861C129.862 67.3994 130.118 67.1126 130.404 66.8364C131.598 65.5696 132.823 64.3289 134.053 63.0934C140.315 56.8573 146.985 51.0458 154.019 45.6976C154.296 45.4786 154.577 45.2701 154.853 45.0616C156.178 44.0659 157.523 43.0806 158.867 42.111C166.265 36.8039 173.998 31.9805 182.018 27.6709C182.571 27.3529 183.134 27.0558 183.702 26.7639C190.892 22.96 198.287 19.5559 205.852 16.5672C209.976 14.9355 214.193 13.4029 218.437 12.0006C221.262 11.0727 224.098 10.1917 226.97 9.3628C231.461 8.06997 235.982 6.91094 240.535 5.88571C253.947 2.87616 267.592 1.01705 281.321 0.328631C285.492 0.116635 289.709 0.00716313 293.973 0.000212433C314.549 -0.0270276 335.045 2.56557 354.966 7.71548C355.172 8.02675 355.453 8.2805 355.784 8.45286C356.115 8.62522 356.485 8.71052 356.858 8.70074H358.61C359.371 8.90926 360.127 9.11778 360.888 9.33673C365.138 10.5601 369.328 11.8963 373.456 13.3455L374.499 13.7209C384.689 17.3444 394.604 21.7 404.166 26.7534C412.786 31.2979 421.085 36.4255 429.006 42.1006C430.226 42.9764 431.429 43.8591 432.614 44.7488C434.052 43.8278 435.516 42.9451 437.003 42.1006C442.747 38.8291 448.848 36.2281 455.186 34.3488C468.436 30.4277 482.457 29.8793 495.973 32.7536C513.306 36.4288 528.997 45.5516 541.67 58.5268C546.83 63.8357 551.423 69.6675 555.375 75.9279C555.662 76.3762 555.949 76.8297 556.225 77.2885C559.621 82.8293 562.541 88.6489 564.951 94.6843C565.04 94.9085 565.129 95.117 565.207 95.3359C567.432 100.987 569.227 106.799 570.576 112.721C570.639 113.024 570.712 113.321 570.774 113.623C572.036 119.355 572.893 125.167 573.339 131.019C573.339 131.228 573.339 131.441 573.381 131.66C573.6 134.687 573.711 137.746 573.715 140.835C573.715 143.598 573.621 146.34 573.449 149.061C573.449 149.358 573.407 149.666 573.381 149.974C573.334 150.761 573.266 151.538 573.198 152.33C577.18 155.541 580.906 159.057 584.344 162.845C585.863 164.502 587.333 166.223 588.754 168.005C593.084 173.432 596.889 179.256 600.118 185.401C608.934 202.041 614.001 221.616 614.001 242.567Z" fill="#F9A826"/>
<path opacity="0.1" d="M555.093 367.903C555.093 371.464 542.827 374.8 521.422 377.667H116.558C98.5449 377.706 80.8427 372.974 65.2515 363.952L65.0117 363.816C71.1631 361.575 82.2668 359.484 97.3794 357.597L98.0571 357.514C104.834 356.685 112.409 355.898 120.687 355.152C120.895 355.152 121.109 355.121 121.318 355.095C127.886 354.511 134.873 353.964 142.279 353.453C142.514 353.453 142.743 353.411 142.978 353.401C145.834 353.196 148.75 353.001 151.725 352.817L152.872 352.744C174.532 351.399 199.153 350.325 225.854 349.616H225.886C229.625 349.512 233.404 349.42 237.224 349.34C241.471 349.239 245.77 349.15 250.121 349.074C253.442 349.001 256.804 348.949 260.177 348.897H260.255C275.472 348.667 291.194 348.553 307.271 348.553C347.026 348.553 384.601 349.277 417.897 350.581H417.991C423.11 350.779 428.135 350.998 433.035 351.222L437.206 351.42C442.735 351.684 448.122 351.967 453.366 352.27C515.036 355.778 555.093 361.476 555.093 367.903Z" fill="#F9A826"/>
<g opacity="0.2">
<path d="M354.632 346.161C354.616 346.723 354.551 347.283 354.44 347.834C350.811 347.257 347.162 346.736 343.492 346.27C343.492 346.124 343.492 345.973 343.492 345.822C343.526 344.259 343.976 342.733 344.795 341.401C345.869 339.702 347.501 338.638 349.3 338.696C351.098 338.753 352.657 339.915 353.621 341.672C354.351 343.052 354.7 344.601 354.632 346.161Z" fill="#3F3D56"/>
<path d="M354.932 337.252C355.059 333.22 352.666 329.873 349.587 329.776C346.508 329.679 343.909 332.868 343.781 336.899C343.654 340.931 346.047 344.278 349.126 344.375C352.205 344.473 354.804 341.283 354.932 337.252Z" fill="#3F3D56"/>
<path d="M355.215 328.328C355.342 324.296 352.95 320.949 349.871 320.852C346.791 320.755 344.192 323.944 344.065 327.976C343.937 332.007 346.33 335.354 349.409 335.452C352.488 335.549 355.088 332.36 355.215 328.328Z" fill="#3F3D56"/>
<path d="M355.496 319.402C355.624 315.371 353.231 312.024 350.152 311.926C347.073 311.829 344.473 315.018 344.346 319.05C344.219 323.081 346.611 326.428 349.69 326.526C352.769 326.623 355.369 323.434 355.496 319.402Z" fill="#3F3D56"/>
<path d="M355.775 310.478C355.903 306.447 353.51 303.1 350.431 303.002C347.352 302.905 344.753 306.094 344.625 310.126C344.498 314.158 346.891 317.505 349.97 317.602C353.049 317.699 355.648 314.51 355.775 310.478Z" fill="#3F3D56"/>
<path d="M331.226 248.552C330.491 247.558 329.829 246.513 329.245 245.424L343.977 243.48L328.119 243.099C326.704 239.743 325.988 236.132 326.016 232.49C326.044 228.847 326.814 225.248 328.28 221.914L349.195 233.617L330.037 218.582C331.97 215.457 334.526 212.763 337.547 210.669C340.567 208.576 343.987 207.128 347.592 206.415C351.197 205.703 354.911 205.741 358.5 206.529C362.09 207.316 365.479 208.835 368.455 210.99C371.432 213.146 373.932 215.892 375.799 219.058C377.666 222.223 378.861 225.739 379.308 229.387C379.755 233.035 379.446 236.735 378.399 240.258C377.351 243.781 375.589 247.05 373.222 249.861C374.364 251.407 375.334 253.073 376.115 254.829L356.78 264.108L377.283 257.941C378.574 262.201 378.782 266.716 377.888 271.077C376.994 275.438 375.027 279.507 372.163 282.916C375.14 286.955 376.92 291.75 377.3 296.753C377.68 301.755 376.644 306.764 374.312 311.206C371.979 315.648 368.443 319.344 364.109 321.871C359.775 324.398 354.817 325.654 349.802 325.496C344.787 325.338 339.918 323.772 335.752 320.977C331.585 318.182 328.29 314.27 326.241 309.69C324.193 305.11 323.475 300.046 324.169 295.078C324.864 290.109 326.942 285.435 330.167 281.592C326.611 276.766 324.78 270.884 324.97 264.892C325.159 258.9 327.356 253.145 331.21 248.552H331.226Z" fill="#F9A826"/>
<path opacity="0.1" d="M378.419 266.578C378.237 272.574 376.032 278.332 372.163 282.916C375.14 286.955 376.92 291.749 377.3 296.752C377.68 301.755 376.644 306.764 374.312 311.206C371.979 315.647 368.443 319.343 364.109 321.87C359.775 324.397 354.817 325.654 349.802 325.495C344.787 325.337 339.918 323.771 335.752 320.976C331.585 318.181 328.29 314.27 326.241 309.69C324.193 305.11 323.475 300.046 324.169 295.077C324.864 290.108 326.942 285.435 330.167 281.592C326.742 276.937 378.513 263.581 378.419 266.578Z" fill="black"/>
</g>
<g opacity="0.2">
<path d="M275.394 346.161C275.377 346.723 275.313 347.283 275.201 347.834C271.573 347.257 267.924 346.736 264.254 346.27C264.254 346.124 264.254 345.973 264.254 345.822C264.288 344.259 264.738 342.733 265.557 341.401C266.631 339.702 268.263 338.638 270.061 338.696C271.86 338.753 273.418 339.915 274.383 341.672C275.112 343.052 275.461 344.601 275.394 346.161Z" fill="#3F3D56"/>
<path d="M275.688 337.254C275.815 333.222 273.422 329.875 270.343 329.778C267.264 329.68 264.665 332.87 264.537 336.901C264.41 340.933 266.803 344.28 269.882 344.377C272.961 344.475 275.56 341.285 275.688 337.254Z" fill="#3F3D56"/>
<path d="M275.973 328.33C276.1 324.298 273.707 320.951 270.628 320.854C267.549 320.757 264.95 323.946 264.822 327.978C264.695 332.009 267.088 335.356 270.167 335.454C273.246 335.551 275.845 332.361 275.973 328.33Z" fill="#3F3D56"/>
<path d="M276.252 319.404C276.379 315.373 273.987 312.025 270.908 311.928C267.829 311.831 265.229 315.02 265.102 319.052C264.974 323.083 267.367 326.43 270.446 326.528C273.525 326.625 276.125 323.436 276.252 319.404Z" fill="#3F3D56"/>
<path d="M276.529 310.48C276.657 306.449 274.264 303.102 271.185 303.004C268.106 302.907 265.507 306.096 265.379 310.128C265.252 314.159 267.644 317.507 270.724 317.604C273.803 317.701 276.402 314.512 276.529 310.48Z" fill="#3F3D56"/>
<path d="M251.987 248.552C251.253 247.558 250.591 246.513 250.006 245.424L264.738 243.48L248.88 243.099C247.465 239.743 246.75 236.132 246.777 232.49C246.805 228.847 247.576 225.248 249.042 221.914L269.957 233.617L250.799 218.582C252.731 215.457 255.288 212.763 258.308 210.669C261.329 208.576 264.748 207.128 268.354 206.415C271.959 205.703 275.672 205.741 279.262 206.529C282.852 207.316 286.241 208.835 289.217 210.99C292.193 213.146 294.693 215.892 296.561 219.058C298.428 222.223 299.623 225.739 300.07 229.387C300.517 233.035 300.207 236.735 299.16 240.258C298.113 243.781 296.351 247.05 293.983 249.861C295.125 251.407 296.095 253.073 296.877 254.829L277.542 264.108L298.044 257.941C299.336 262.201 299.544 266.716 298.65 271.077C297.756 275.438 295.788 279.507 292.925 282.916C295.902 286.955 297.682 291.75 298.062 296.753C298.442 301.755 297.406 306.764 295.073 311.206C292.741 315.648 289.205 319.344 284.871 321.871C280.536 324.398 275.578 325.654 270.564 325.496C265.549 325.338 260.68 323.772 256.514 320.977C252.347 318.182 249.051 314.27 247.003 309.69C244.955 305.11 244.237 300.046 244.931 295.078C245.625 290.109 247.704 285.435 250.929 281.592C247.373 276.766 245.542 270.884 245.731 264.892C245.92 258.9 248.118 253.145 251.972 248.552H251.987Z" fill="#F9A826"/>
<path opacity="0.1" d="M299.181 266.578C298.998 272.574 296.794 278.332 292.925 282.916C295.902 286.955 297.682 291.749 298.062 296.752C298.442 301.755 297.406 306.764 295.073 311.206C292.741 315.647 289.205 319.343 284.871 321.87C280.536 324.397 275.578 325.654 270.564 325.495C265.549 325.337 260.68 323.771 256.514 320.976C252.347 318.181 249.051 314.27 247.003 309.69C244.955 305.11 244.237 300.046 244.931 295.077C245.625 290.108 247.704 285.435 250.929 281.592C247.504 276.937 299.275 263.581 299.181 266.578Z" fill="black"/>
</g>
<g opacity="0.2">
<path d="M491.838 351.866C491.798 352.931 491.671 353.991 491.457 355.035C484.472 353.92 477.436 352.922 470.35 352.043C470.35 351.761 470.35 351.475 470.35 351.183C470.416 348.172 471.283 345.234 472.862 342.67C474.947 339.401 478.075 337.353 481.532 337.457C484.988 337.561 487.996 339.808 489.872 343.191C491.288 345.856 491.966 348.851 491.838 351.866Z" fill="#3F3D56"/>
<path d="M492.404 334.701C492.649 326.937 488.04 320.491 482.11 320.304C476.179 320.117 471.172 326.259 470.927 334.022C470.681 341.786 475.29 348.232 481.221 348.419C487.152 348.607 492.159 342.465 492.404 334.701Z" fill="#3F3D56"/>
<path d="M492.947 317.519C493.192 309.756 488.583 303.31 482.653 303.122C476.722 302.935 471.715 309.077 471.47 316.841C471.224 324.605 475.833 331.05 481.764 331.238C487.695 331.425 492.702 325.283 492.947 317.519Z" fill="#3F3D56"/>
<path d="M493.494 300.336C493.739 292.572 489.13 286.126 483.199 285.939C477.269 285.751 472.262 291.893 472.017 299.657C471.771 307.421 476.38 313.867 482.311 314.054C488.242 314.242 493.248 308.1 493.494 300.336Z" fill="#3F3D56"/>
<path d="M493.424 282.373C493.657 274.605 489.035 268.164 483.102 267.986C477.168 267.808 472.169 273.961 471.936 281.728C471.703 289.496 476.324 295.937 482.258 296.115C488.191 296.293 493.191 290.141 493.424 282.373Z" fill="#3F3D56"/>
<path d="M446.771 163.956C445.364 162.042 444.091 160.034 442.96 157.945L471.319 154.202L440.797 153.467C438.07 147.006 436.691 140.056 436.743 133.043C436.795 126.03 438.277 119.101 441.099 112.681L481.37 135.206L444.493 106.263C448.222 100.26 453.147 95.089 458.961 91.0725C464.776 87.0561 471.356 84.2803 478.29 82.9181C485.225 81.556 492.366 81.6367 499.268 83.1552C506.17 84.6736 512.685 87.5974 518.407 91.7442C524.13 95.891 528.937 101.172 532.529 107.258C536.121 113.344 538.421 120.105 539.286 127.119C540.151 134.133 539.562 141.249 537.555 148.026C535.549 154.802 532.169 161.092 527.625 166.505C529.821 169.484 531.689 172.691 533.198 176.071L495.971 193.946L535.439 182.061C537.927 190.253 538.332 198.935 536.618 207.323C534.904 215.711 531.125 223.539 525.623 230.099C531.353 237.874 534.778 247.104 535.509 256.735C536.24 266.365 534.245 276.007 529.754 284.558C525.263 293.108 518.457 300.222 510.113 305.087C501.769 309.951 492.225 312.369 482.572 312.065C472.918 311.761 463.545 308.746 455.525 303.366C447.504 297.985 441.159 290.456 437.216 281.64C433.272 272.824 431.889 263.075 433.225 253.51C434.561 243.945 438.561 234.948 444.769 227.549C437.927 218.258 434.404 206.937 434.767 195.404C435.13 183.87 439.358 172.793 446.771 163.951V163.956Z" fill="#F9A826"/>
<path opacity="0.1" d="M537.633 198.654C537.291 210.189 533.066 221.272 525.643 230.109C531.372 237.884 534.798 247.115 535.528 256.745C536.259 266.376 534.265 276.017 529.774 284.568C525.283 293.118 518.476 300.233 510.133 305.097C501.789 309.961 492.245 312.38 482.591 312.075C472.938 311.771 463.565 308.756 455.544 303.376C447.524 297.996 441.179 290.467 437.235 281.65C433.292 272.834 431.909 263.086 433.245 253.52C434.58 243.955 438.581 234.959 444.789 227.56C438.147 218.588 537.815 192.883 537.633 198.654Z" fill="black"/>
</g>
<path d="M82.2715 352.779L87.7399 352.764H95.45L105.198 194.403L201.738 33.3047L197.542 28.8006V17.3945L93.1354 190.67L82.2715 352.779Z" fill="#F1C0C0"/>
<path opacity="0.1" d="M88.3242 352.764H95.4504L105.199 194.403L201.739 33.3048L197.542 28.8008L97.9631 191.989L88.3242 352.764Z" fill="black"/>
<path d="M66.1582 354.1L316.305 373.242L316.519 373.258L558.606 358.369L558.789 358.359V348.136L292.038 343.241L69.4893 343.027H67.8629L67.6856 344.174L66.1582 354.1Z" fill="#F1C0C0"/>
<path opacity="0.1" d="M66.1582 354.1L316.305 373.242L316.519 373.258L558.606 358.369L558.789 358.171V348.35H558.575L316.305 356.44L69.4893 343.027H69.4528L69.0149 343.314L67.6856 344.174L66.1582 354.1Z" fill="black"/>
<path opacity="0.1" d="M66.1582 354.1L316.305 373.242V356.441L69.0149 343.314L67.6856 344.175L66.1582 354.1Z" fill="black"/>
<path d="M197.512 28.5881L307.793 146.955L304.384 355.163L313.752 356.294L313.908 356.315H323.276L324.397 155.895L530.9 224.874L534.382 347.693L541.92 348.537L544.475 348.824L538.563 216.356L322.692 140.569L204.325 17.5156H197.512V28.5881Z" fill="#F1C0C0"/>
<path opacity="0.1" d="M323.547 152.062L324.397 155.894L530.9 224.873L534.382 347.692L541.92 348.536L536.009 222.318L323.547 152.062Z" fill="black"/>
<path opacity="0.1" d="M197.512 28.5881L307.793 146.955L304.384 355.163L313.752 356.294L316.306 140.142L197.512 17.5156V28.5881Z" fill="black"/>
<path d="M323.947 235.624L399.687 250.539L399.713 250.544L532.369 276.677L538.442 274.242L538.421 273.815L538.025 265.344L324.025 222.102L323.947 235.624Z" fill="#F1C0C0"/>
<path opacity="0.1" d="M399.713 250.543L532.369 276.676L538.442 274.241L538.421 273.814L399.713 250.543Z" fill="black"/>
<path d="M404.785 182.748L406.834 295.527L407.892 353.386L417.218 353.073L423.088 352.875L421.264 184.38L417.218 183.035L416.332 182.748H404.785Z" fill="#F1C0C0"/>
<path opacity="0.1" d="M404.869 182.721V182.747L406.834 295.525L407.893 353.385L417.219 353.072V182.721H404.869Z" fill="black"/>
<path d="M258.701 211.549C259.248 211.846 259.771 212.186 260.265 212.565C260.849 213.077 261.374 213.652 261.829 214.28C264.065 217.174 266.13 220.536 265.911 224.185C265.915 224.716 265.815 225.243 265.616 225.735C265.416 226.227 265.121 226.675 264.748 227.052C263.826 227.839 262.502 227.876 261.292 227.876C259.978 227.876 258.597 227.876 257.461 227.198C256.324 226.521 255.375 225.202 254.03 225.233C253.84 225.264 253.647 225.264 253.457 225.233C252.993 225.082 252.899 224.472 252.597 224.086C252.075 223.393 250.976 223.565 250.157 223.867C249.339 224.169 248.432 224.623 247.624 224.274C247.154 224.026 246.771 223.643 246.524 223.174C244.59 220.046 244.178 216.287 243.813 212.654C243.589 210.444 241.879 202.906 246.597 204.621C248.682 205.371 250.631 206.873 252.529 207.973L258.701 211.549Z" fill="#3F3D56"/>
<path d="M254.041 212.294C254.463 212.597 254.974 212.751 255.492 212.73C256.011 212.709 256.508 212.516 256.903 212.18C257.68 211.478 258.174 210.519 258.295 209.479C258.817 209.318 259.082 210.001 259.416 210.418C260 211.127 261.189 211.116 261.72 211.872C262.09 212.393 262.007 213.118 262.268 213.707C262.606 214.468 263.446 214.864 264.019 215.48C264.561 216.152 264.952 216.932 265.166 217.768L266.021 220.333C266.43 221.399 266.693 222.516 266.803 223.654C266.857 224.222 266.797 224.795 266.627 225.341C266.457 225.886 266.18 226.391 265.812 226.828C264.666 228.064 262.784 228.194 261.121 228.158C260.565 228.169 260.011 228.104 259.473 227.965C257.998 227.506 257.055 226.02 256.664 224.524C256.273 223.028 256.314 221.459 256.085 219.926C255.837 218.421 255.399 216.953 254.782 215.558C254.323 214.473 253.061 212.857 253.082 211.705C253.458 211.705 253.729 212.049 254.041 212.294Z" fill="#3F3D56"/>
<path d="M255.912 207.014C255.668 206.274 255.526 205.504 255.49 204.726C255.49 203.162 256.204 201.692 256.923 200.295L250.965 201.103C250.245 201.202 249.442 201.348 249.036 201.947C248.881 202.245 248.801 202.574 248.801 202.909C248.801 203.244 248.881 203.574 249.036 203.871C249.335 204.466 249.572 205.089 249.745 205.732C249.758 206.295 249.823 206.855 249.938 207.405C250.123 207.81 250.383 208.176 250.704 208.485C252.409 210.372 253.686 212.598 254.958 214.803C254.921 214.74 258.55 211.93 258.404 211.013C258.32 210.492 257.272 209.866 256.939 209.366C256.478 208.639 256.132 207.846 255.912 207.014Z" fill="#BE6F72"/>
<path d="M307.001 186.646V191.781L219.073 208.932L214.512 211.695H198.773V208.802L285.164 187.929L307.001 186.646Z" fill="#F1C0C0"/>
<path opacity="0.1" d="M307.001 191.781L219.073 208.932L214.512 211.695H198.773L285.805 193.069L307.001 191.781Z" fill="black"/>
<path d="M236.406 332.413C235.426 331.226 234.074 330.406 232.569 330.086C231.064 329.766 229.495 329.965 228.117 330.651C227.822 330.79 227.562 330.993 227.356 331.245C226.835 331.975 227.168 332.981 227.215 333.883C227.335 336.083 225.584 337.871 224.009 339.409C223.165 340.232 222.305 341.113 221.924 342.234C221.543 343.355 221.825 344.778 222.847 345.362C223.293 345.585 223.778 345.72 224.275 345.758C225.941 346.083 227.65 346.131 229.332 345.899C230.995 345.581 232.626 344.637 233.346 343.105C233.484 342.689 233.714 342.31 234.018 341.994C234.936 341.27 236.343 342.119 237.386 341.603C238.246 341.176 238.282 340.503 238.293 339.617C238.324 337.167 237.959 334.394 236.406 332.413Z" fill="#F9A826"/>
<path d="M248.916 332.319C249.558 334.008 249.646 335.849 249.73 337.652C249.777 338.695 249.808 339.811 249.245 340.692C248.682 341.573 247.582 342.036 246.529 342.255C244.355 342.704 241.837 342.281 240.435 340.556C239.361 339.237 239.137 337.428 239.335 335.718C239.502 334.316 239.856 332.674 238.85 331.678C238.589 331.412 238.251 331.225 238.011 330.938C237.489 330.302 237.573 329.343 237.854 328.561C238.221 327.813 238.496 327.024 238.673 326.21C238.714 325.824 245.731 326.481 246.378 326.799C247.259 327.232 247.123 327.956 247.389 328.832C247.759 330.052 248.468 331.152 248.916 332.319Z" fill="#F9A826"/>
<path d="M250.204 257.428C251.581 258.319 252.112 260.071 252.326 261.697C252.915 266.154 251.883 270.658 251.805 275.157C251.732 281.46 253.556 287.877 251.998 293.982C251.065 297.631 251.857 301.801 250.981 305.487C250.721 306.581 250.241 307.614 249.991 308.708C249.469 311.08 250.017 313.562 250.752 315.881C250.987 316.507 251.136 317.161 251.195 317.826C251.16 318.85 250.9 319.854 250.434 320.766L247.306 328.163C246.957 328.992 245.581 329.128 244.7 329.237C243.042 329.435 241.191 329.576 239.872 328.549C238.553 327.522 238.235 325.802 238.032 324.196C237.642 321.114 237.468 318.008 237.511 314.901C237.568 314.091 237.496 313.276 237.297 312.488C237.01 311.596 236.38 310.825 236.208 309.881C235.989 308.661 236.609 307.462 236.838 306.232C236.996 305.108 236.978 303.967 236.786 302.849C236.583 301.181 236.348 299.513 236.082 297.855C235.707 295.535 236.244 293.246 236.604 290.921C236.943 288.737 236.51 286.511 236.082 284.343C236.119 286.103 235.9 287.859 235.431 289.556C235.154 290.385 234.758 291.177 234.518 292.021C233.45 295.811 235.728 299.789 235.405 303.714C235.254 305.549 234.534 307.363 234.737 309.172C234.878 310.496 235.493 311.711 235.916 312.973C236.338 314.234 236.557 315.678 235.916 316.856C234.221 320.057 235.488 324.41 237.005 327.694C237.313 328.277 237.581 328.879 237.808 329.498C238.256 330.978 237.881 332.568 238.001 334.111C237.564 334.183 237.117 334.154 236.693 334.026C236.27 333.899 235.881 333.677 235.556 333.376C235.327 333.137 235.139 332.855 234.915 332.605C234.288 332.008 233.547 331.545 232.736 331.244C232.259 330.978 231.717 330.853 231.172 330.884C230.599 331.045 230.083 331.365 229.686 331.807C229.17 332.261 228.623 332.677 228.049 333.053C227.805 333.241 227.519 333.368 227.215 333.423C227.062 333.447 226.906 333.422 226.769 333.352C226.631 333.281 226.519 333.17 226.449 333.032C226.416 332.945 226.397 332.854 226.391 332.761C226.198 331.187 226.095 329.603 226.084 328.017C226.084 325.291 222.82 323.414 222.409 320.719C222.08 318.545 222.69 316.33 222.487 314.14C222.388 313.014 222.075 311.909 222.096 310.783C222.096 310.053 222.263 309.339 222.32 308.614C222.368 307.81 222.356 307.003 222.284 306.201L222.122 303.683C221.966 301.196 221.794 298.658 220.813 296.385C219.651 293.731 218.963 290.894 218.78 288.002C218.676 286.178 218.744 284.353 218.535 282.523C218.348 280.871 217.931 279.229 218.051 277.571C218.15 276.288 218.572 275.048 218.671 273.765C218.874 271.3 217.936 268.902 217.201 266.54C216.466 264.179 215.924 261.562 216.888 259.284C217.026 258.91 217.255 258.576 217.555 258.314C217.925 258.069 218.346 257.912 218.786 257.855C227.73 255.976 236.898 255.392 246.008 256.119C247.493 256.204 248.935 256.653 250.204 257.428Z" fill="#3F3D56"/>
<path d="M220.609 202.062C225.221 202.062 228.96 198.323 228.96 193.711C228.96 189.098 225.221 185.359 220.609 185.359C215.997 185.359 212.258 189.098 212.258 193.711C212.258 198.323 215.997 202.062 220.609 202.062Z" fill="#BE6F72"/>
<path d="M218.993 204.141C219.113 204.619 219.113 205.119 218.993 205.596C218.862 205.929 218.677 206.239 218.446 206.513C217.637 207.556 216.743 208.529 215.771 209.422C216.266 210.527 217.157 211.407 218.269 211.888C219.372 212.358 220.529 212.689 221.714 212.873C222.306 213.029 222.921 213.071 223.528 212.998C224.088 212.858 224.618 212.618 225.092 212.289L229.732 209.511C230.432 209.132 231.08 208.664 231.661 208.119C232.512 207.244 232.993 206.076 233.006 204.856C233.027 204.637 232.968 204.418 232.839 204.241C232.661 204.086 232.438 203.992 232.203 203.975C230.571 203.615 229.284 202.291 228.554 200.789C227.894 199.25 227.467 197.622 227.287 195.957L222.34 198.564C221.605 198.955 220.875 199.345 220.114 199.684C219.629 199.903 218.649 200.086 218.305 200.529C217.648 201.347 218.821 203.156 218.993 204.141Z" fill="#BE6F72"/>
<path d="M215.803 207.905C215.099 208.482 214.549 209.226 214.203 210.068C213.88 211.111 214.203 212.211 214.495 213.243C215.863 217.642 216.909 222.136 217.623 226.687C218.061 229.815 218.222 232.99 218.436 236.154C218.874 242.608 219.51 252.898 220.36 259.31C223.487 259.451 226.537 258.539 229.639 258.205C235.436 257.59 241.405 258.998 247.082 257.684C245.705 252.247 244.329 242.962 242.953 237.53C242.344 235.39 241.922 233.201 241.691 230.988C241.571 229.398 241.644 227.803 241.665 226.202C241.712 223.075 241.54 219.947 241.368 216.819C241.17 213.17 240.972 209.521 240.107 205.95C240.046 205.495 239.833 205.074 239.502 204.756C238.981 204.375 238.303 204.511 237.682 204.594C235.783 204.836 233.861 204.38 232.271 203.312C231.583 202.843 230.661 202.269 230.019 202.791C229.746 203.105 229.565 203.49 229.498 203.901C229.214 204.639 228.776 205.307 228.214 205.862C227.651 206.416 226.976 206.845 226.235 207.118C224.749 207.656 223.193 207.975 221.616 208.066C221.133 208.17 220.63 208.113 220.182 207.905C219.442 207.451 219.39 205.819 218.457 205.71C217.638 205.616 216.356 207.378 215.803 207.905Z" fill="#3F3D56"/>
<path d="M228.137 220.635C226.214 218.795 225.369 216.126 223.967 213.858C223.012 212.333 221.792 210.991 220.365 209.896C219.647 209.422 218.989 208.864 218.404 208.233C217.909 207.623 217.534 206.81 216.783 206.575C216.473 206.508 216.151 206.517 215.845 206.601C215.539 206.686 215.258 206.843 215.026 207.06C214.567 207.498 214.132 207.961 213.723 208.447C211.513 210.735 207.629 211.053 205.878 213.702C205.405 214.263 205.084 214.936 204.944 215.657C204.44 219.511 205.437 223.412 207.728 226.552C208.172 227.28 208.853 227.832 209.657 228.116C209.548 229.088 209.677 230.072 210.032 230.983C210.998 234.282 212.184 237.513 213.582 240.653C213.248 241.881 213.014 243.135 212.884 244.401C212.519 247.586 212.858 250.818 212.514 254.009C212.232 256.615 211.471 259.154 211.445 261.766C211.445 262.183 211.482 262.678 211.841 262.892C212.033 262.99 212.247 263.035 212.462 263.022L218.874 263.215C222.596 263.324 226.354 263.434 230.019 262.746C230.507 262.674 230.98 262.524 231.421 262.303C232.662 261.609 233.074 260.045 233.272 258.654C233.531 256.848 233.634 255.024 233.58 253.201C234.356 255.656 235.279 258.195 237.625 259.258C238.866 259.821 240.284 259.78 241.644 259.743C244.577 259.612 247.499 259.311 250.397 258.841C250.575 258.863 250.757 258.843 250.926 258.783C251.096 258.722 251.249 258.623 251.373 258.493C251.497 258.363 251.589 258.205 251.641 258.033C251.693 257.861 251.705 257.679 251.674 257.501L251.705 254.655C251.768 248.874 250.334 243.348 249.776 237.593C249.599 235.779 249.615 233.944 249.172 232.166C248.989 231.421 248.723 230.691 248.562 229.94C248.423 229.205 248.336 228.461 248.301 227.714L247.895 221.98C247.702 219.326 247.425 216.767 247.222 214.119C247.11 211.54 246.737 208.979 246.106 206.476C245.653 204.912 244.709 203.14 243.078 202.947C242.207 202.848 241.363 203.229 240.534 203.495C238.496 204.136 236.31 204.127 234.278 203.468C233.65 203.221 232.996 203.046 232.328 202.947C231.992 202.901 231.65 202.946 231.337 203.076C231.024 203.206 230.75 203.417 230.546 203.687C230.343 204.095 230.248 204.547 230.269 205.001C230.024 210.209 229.571 215.573 228.137 220.635Z" fill="#F9A826"/>
<path d="M219.75 220.792C217.346 218.259 214.881 215.678 211.784 214.068C210.564 213.432 209.178 212.952 207.827 213.192C206.477 213.432 205.221 214.604 205.283 215.976C205.325 216.825 205.841 217.576 206.003 218.41C206.191 219.348 205.919 220.349 206.211 221.256C206.449 221.854 206.803 222.398 207.254 222.857L210.945 227.23C212.509 229.055 214.073 230.906 216.085 232.167C218.097 233.429 220.704 234.018 222.914 233.121C224.487 232.39 225.794 231.19 226.657 229.686C227.574 228.226 228.221 226.631 229.081 225.124C230.42 222.717 232.186 220.574 234.294 218.801C233.21 218.519 231.849 218.123 231.166 217.237C230.972 216.955 230.806 216.655 230.671 216.34L229.826 214.516C229.539 214.501 229.252 214.546 228.983 214.647C228.714 214.748 228.468 214.904 228.262 215.105C227.9 215.524 227.512 215.919 227.1 216.288C226.365 216.841 225.369 216.992 224.702 217.623C224.444 217.894 224.21 218.187 224.003 218.499C223.499 219.162 222.858 219.71 222.125 220.105C221.391 220.501 220.581 220.735 219.75 220.792Z" fill="#3F3D56"/>
<path d="M234.486 209.892C236.295 206.592 236.212 202.635 236.728 198.908C236.784 197.921 237.13 196.972 237.723 196.181C238.766 195.003 240.606 194.988 242.18 195.139C242.644 195.191 243.223 195.41 243.197 195.874C243.16 196.04 243.079 196.193 242.962 196.317C241.436 198.286 240.539 200.67 240.387 203.156C241.206 203.725 242.472 202.557 243.26 203.156C243.781 203.594 243.541 204.46 243.228 205.085C242.502 206.535 241.753 207.973 240.981 209.402C240.366 210.661 239.562 211.819 238.599 212.837C237.937 213.473 237.16 213.974 236.488 214.599C234.924 216.064 233.98 218.134 232.364 219.562C232.228 219.71 232.043 219.804 231.843 219.828C231.637 219.813 231.444 219.726 231.296 219.583C230.488 218.926 229.819 218.116 229.325 217.2C228.71 216.064 228.804 215.73 229.773 214.927C231.588 213.494 233.355 211.956 234.486 209.892Z" fill="#BE6F72"/>
<path d="M216.726 218.55C217.038 218.743 217.424 218.962 217.768 218.8C217.909 218.715 218.028 218.599 218.117 218.461C218.713 217.666 219.211 216.801 219.598 215.886C219.665 215.757 219.702 215.614 219.707 215.469C219.707 215.135 219.41 214.89 219.134 214.697C217.654 213.754 216.062 212.997 214.395 212.445C213.019 211.924 211.58 211.47 210.121 211.601C209.572 211.638 209.037 211.785 208.547 212.034C208.057 212.283 207.622 212.629 207.269 213.05C206.227 214.39 207.973 214.796 209.068 215.281C211.601 216.433 214.343 217.1 216.726 218.55Z" fill="#F9A826"/>
<path opacity="0.1" d="M215.084 227.413C215.067 227.532 215.077 227.654 215.116 227.768C215.154 227.882 215.218 227.986 215.303 228.07C215.455 227.33 215.256 226.548 215.413 225.802C215.642 224.682 216.732 223.837 216.826 222.711C214.829 222.32 215.1 226.204 215.084 227.413Z" fill="black"/>
<path opacity="0.2" d="M306.999 186.646V191.781L285.803 193.069L285.162 187.929L306.999 186.646Z" fill="black"/>
<path d="M213.094 194.951C214.418 193.872 213.652 191.61 214.548 190.16C215.07 189.368 215.951 188.951 216.816 188.596C217.861 188.108 218.979 187.798 220.126 187.679C220.701 187.624 221.28 187.699 221.822 187.898C222.363 188.098 222.853 188.416 223.254 188.831C223.593 189.217 223.822 189.686 224.14 190.087C224.534 190.556 225.047 190.909 225.626 191.109C226.204 191.309 226.826 191.349 227.425 191.224C228.118 191.067 228.837 190.541 228.79 189.832C228.712 189.401 228.492 189.008 228.165 188.716L226.674 187.064C224.98 185.187 223.098 183.196 220.611 182.727C218.88 182.398 217.108 182.862 215.44 183.42C214.767 183.644 214.012 183.978 213.824 184.661C213.699 185.13 213.886 185.641 213.777 186.115C213.563 187.059 212.354 187.377 211.791 188.169C211.228 188.961 211.4 189.9 211.238 190.775C211.077 191.651 210.607 192.506 210.55 193.413C210.514 193.961 210.79 194.977 211.405 195.175C212.02 195.373 212.713 194.299 213.094 194.951Z" fill="#3F3D56"/>
<path d="M228.283 189.08C227.843 186.786 226.896 184.62 225.51 182.741C224.277 180.985 222.563 179.623 220.573 178.821C219.578 178.432 218.509 178.274 217.444 178.358C216.38 178.442 215.348 178.766 214.427 179.306C213.059 180.282 211.995 181.624 211.356 183.179C210.006 186.088 209.506 189.643 211.075 192.437C211.7 191.676 212.774 192.02 213.723 191.744C214.912 191.405 215.918 190.613 217.049 190.117C220.463 188.611 224.634 189.831 228.283 189.08Z" fill="#FED253"/>
<path opacity="0.1" d="M211.873 188.92C211.753 187.982 211.674 186.892 212.342 186.225C212.375 186.184 212.417 186.152 212.465 186.13C212.513 186.108 212.565 186.098 212.618 186.1C212.665 186.115 212.707 186.139 212.744 186.172C212.781 186.204 212.811 186.243 212.832 186.288C213.217 186.895 213.545 187.538 213.812 188.206C213.423 188.116 213.017 188.146 212.645 188.29C212.273 188.434 211.953 188.686 211.727 189.014" fill="black"/>
<path opacity="0.1" d="M224.056 186.271L223.868 184.41C223.838 184.257 223.85 184.098 223.904 183.951C223.983 183.828 224.104 183.739 224.245 183.701C224.385 183.662 224.535 183.677 224.665 183.743C224.922 183.885 225.133 184.096 225.275 184.353C225.709 185.019 226.069 185.73 226.349 186.474C225.51 186.313 224.646 186.323 223.811 186.506" fill="black"/>
<path opacity="0.1" d="M228.72 261.803V266.057L225.128 266.296H206.236V261.803H228.72Z" fill="black"/>
<path d="M228.72 261.803V266.296H206.237L146.506 191.474V187.939H159.028L228.72 261.803Z" fill="#F1C0C0"/>
<path opacity="0.1" d="M228.72 261.803V266.296H206.237L146.506 191.474V187.939H159.028L228.72 261.803Z" fill="black"/>
<path opacity="0.1" d="M228.72 261.803V266.296H206.237L146.506 191.474V187.939L206.56 261.803H228.72Z" fill="black"/>
<path d="M154.337 336.797C154.377 337.009 154.372 337.226 154.323 337.435C154.275 337.645 154.184 337.842 154.056 338.015C153.927 338.188 153.765 338.332 153.578 338.439C153.392 338.546 153.185 338.614 152.972 338.637C151.522 339.127 149.985 339.612 148.958 340.723C147.931 341.833 147.727 343.892 148.958 344.794C149.586 345.173 150.308 345.37 151.043 345.362C153.404 345.524 155.865 345.492 158.007 344.492C159.54 343.783 160.984 342.573 162.668 342.683C163.538 342.735 164.466 343.141 165.243 342.745C166.02 342.349 166.239 341.244 166.244 340.321C166.264 338.395 165.973 336.478 165.384 334.644C165.306 334.394 161.99 334.201 161.594 334.123L157.575 333.602C156.814 333.503 155.171 332.929 154.572 333.565C153.972 334.201 154.337 336.041 154.337 336.797Z" fill="#F9A826"/>
<path d="M178.321 323.786C178.491 324.725 178.767 325.641 179.145 326.518C179.702 327.936 180.417 329.442 181.782 330.13C183.023 330.751 184.545 330.527 185.807 329.938C186.333 329.72 186.795 329.369 187.147 328.921C187.554 328.212 187.735 327.395 187.668 326.58C187.668 324.563 187.548 322.478 186.625 320.684C185.833 319.121 184.452 317.776 184.431 316.045L179.682 316.962C179.427 316.987 179.185 317.083 178.983 317.239C178.833 317.397 178.728 317.594 178.681 317.807C178.174 319.758 178.051 321.789 178.321 323.786Z" fill="#F9A826"/>
<path d="M121.609 274.262C121.41 275.94 121.494 277.739 122.37 279.188C123.245 280.637 125.091 281.597 126.686 281.018C126.768 280.997 126.844 280.96 126.912 280.909C126.979 280.858 127.035 280.794 127.077 280.721C127.119 280.545 127.095 280.359 127.009 280.199C126.305 278.32 126.363 276.24 127.171 274.403C127.275 274.163 127.499 273.881 127.744 273.975C127.847 274.027 127.929 274.111 127.979 274.215C128.231 274.652 128.358 275.15 128.344 275.654C128.27 276.11 128.256 276.575 128.302 277.035C128.401 277.483 128.881 277.906 129.298 277.713C129.418 277.639 129.523 277.541 129.604 277.425C129.686 277.31 129.743 277.179 129.772 277.04C130.935 273.678 130.408 270.003 129.876 266.484C129.881 266.403 129.867 266.322 129.837 266.247C129.807 266.172 129.761 266.105 129.702 266.05C129.642 265.994 129.572 265.953 129.495 265.928C129.418 265.903 129.336 265.895 129.256 265.905C126.795 265.66 125.451 265.071 124.043 267.36C122.834 269.289 121.609 271.942 121.609 274.262Z" fill="#F9A826"/>
<path d="M150.375 265.708C149.645 268.742 148.91 271.812 148.863 274.93C148.876 276.872 149.022 278.81 149.301 280.732L149.849 285.246C150.036 286.769 150.219 288.285 150.485 289.792C150.654 290.568 150.747 291.359 150.761 292.154C150.71 292.937 150.586 293.713 150.391 294.473C150.063 296.07 149.88 297.692 149.843 299.321C149.786 301.928 150.109 304.534 150.313 307.141C150.718 312.335 150.657 317.555 150.13 322.738C149.92 324.137 150.223 325.565 150.985 326.758C151.294 327.134 151.549 327.551 151.741 327.998C152.132 329.192 151.22 330.386 150.985 331.611C150.835 332.566 151.07 333.542 151.639 334.324C152.208 335.106 153.064 335.63 154.019 335.781C158.189 336.277 162.474 336.052 166.233 337.96C166.629 336.803 165.764 335.489 166.16 334.311C166.41 333.581 167.098 333.107 167.568 332.492C168.198 331.555 168.512 330.44 168.464 329.312C168.483 327.839 168.221 326.376 167.693 325.001C167.25 323.854 166.614 322.723 166.65 321.492C166.65 320.888 166.864 320.252 166.619 319.694C166.451 319.374 166.222 319.088 165.946 318.855C164.388 317.148 163.431 314.979 163.22 312.677C163.017 310.393 163.09 308.093 163.439 305.827C163.694 303.669 164.038 301.391 165.409 299.707C164.774 294.602 165.147 289.421 166.509 284.459C166.645 284 166.859 283.469 167.328 283.359C167.514 283.34 167.702 283.366 167.877 283.435C168.051 283.504 168.206 283.614 168.329 283.755C169.147 284.522 169.538 285.632 169.893 286.696C170.284 287.848 170.68 289.078 170.383 290.256C170.258 290.777 170.007 291.236 169.861 291.737C169.544 292.742 169.6 293.828 170.018 294.797C170.221 295.15 170.349 295.543 170.393 295.949C170.345 296.297 170.239 296.635 170.08 296.95C169.887 297.566 169.826 298.217 169.9 298.859C169.975 299.501 170.183 300.121 170.513 300.677C171.177 301.784 171.997 302.79 172.947 303.664C172.493 305.665 172.611 307.753 173.286 309.69C173.335 309.777 173.366 309.873 173.378 309.973C173.389 310.072 173.381 310.173 173.354 310.269C173.26 310.467 173.02 310.54 172.833 310.681C172.311 311.108 172.635 311.916 172.984 312.474C173.941 314.005 174.998 315.471 176.148 316.863C177.191 318.109 177.097 320.512 178.65 320.961C179.303 321.102 179.979 321.102 180.631 320.961C182.164 320.726 183.874 320.283 184.625 318.928C184.932 318.37 185.057 317.692 185.537 317.275C186.016 316.858 186.637 316.785 186.903 316.285C187.169 315.784 186.871 315.127 186.96 314.549C187.049 313.97 187.554 313.506 187.716 312.896C188.102 311.489 186.46 310.331 186.235 308.893C185.912 306.807 188.54 305.243 188.43 303.158C188.201 298.628 188.055 294.077 187.82 289.547C187.526 285.489 187.484 281.417 187.695 277.354C187.878 274.825 188.216 272.177 187.288 269.826C185.954 266.511 182.274 264.65 178.713 264.295C175.153 263.941 171.602 264.785 168.073 265.338C162.216 266.24 156.265 266.365 150.375 265.708Z" fill="#3F3D56"/>
<path d="M160.957 215.88C165.569 215.88 169.308 212.141 169.308 207.529C169.308 202.917 165.569 199.178 160.957 199.178C156.344 199.178 152.605 202.917 152.605 207.529C152.605 212.141 156.344 215.88 160.957 215.88Z" fill="#FBBEBE"/>
<path d="M157.558 217.44C157.274 218.101 156.797 218.66 156.19 219.044C155.582 219.429 154.872 219.62 154.154 219.593C153.852 220.844 154.576 222.106 155.405 223.091C157.126 225.094 159.351 226.602 161.849 227.458C164.346 228.315 167.028 228.49 169.616 227.965C170.623 227.785 171.578 227.386 172.415 226.798C173.543 225.856 174.301 224.544 174.553 223.096C174.793 221.659 174.861 220.197 174.756 218.744C174.785 218.456 174.703 218.169 174.527 217.941C174.318 217.779 174.06 217.695 173.797 217.701C172.035 217.545 170.195 217.477 168.646 216.611C167.098 215.746 165.998 213.791 166.743 212.186C166.624 212.436 163.579 212.556 163.178 212.608C161.921 212.785 160.665 212.983 159.414 213.213C158.813 213.246 158.219 213.358 157.647 213.546C156.891 213.937 157.172 213.744 157.35 214.453C157.615 215.538 158.006 216.314 157.558 217.44Z" fill="#FBBEBE"/>
<path d="M163.913 222.518C162.788 222.531 161.666 222.407 160.572 222.148C159.466 221.89 158.492 221.239 157.83 220.318C157.444 219.734 157.194 218.999 156.578 218.671C155.572 218.149 154.425 219.03 153.623 219.838C152.892 220.635 152.045 221.317 151.11 221.861C149.994 222.45 148.691 222.659 147.638 223.352C146.815 223.974 146.109 224.736 145.553 225.604L138.166 235.665C135.2 239.71 132.619 244.053 129.976 248.322C127.688 252.018 126.489 256.272 124.763 260.26C124.627 260.504 124.57 260.785 124.602 261.063C124.664 261.334 124.993 261.553 125.222 261.397C124.445 262.168 125.128 263.482 124.946 264.566C124.738 265.325 124.306 266.003 123.705 266.511C124.852 266.361 126.017 266.416 127.146 266.672C128.312 267.003 129.412 267.532 130.399 268.236C131.029 268.137 130.972 267.016 131.441 266.599C131.723 266.354 132.14 266.385 132.51 266.312C133.902 266.041 134.454 264.368 135.523 263.424C136.414 262.637 137.676 262.382 138.62 261.642C140.152 260.437 140.481 258.295 141.283 256.517C141.966 255.011 143.04 253.697 143.64 252.154C144.031 251.153 144.218 250.069 144.776 249.146C145.668 247.655 147.346 246.863 148.947 246.148C149.958 245.695 151.032 245.226 152.121 245.299C152.064 247.723 151.756 250.11 152.283 252.477C152.465 253.311 152.721 254.124 152.94 254.953C153.935 258.686 154.17 262.575 154.217 266.422C156.612 265.874 159.058 265.58 161.515 265.546C163.449 265.489 165.378 265.739 167.312 265.703C169.606 265.661 171.873 265.218 174.167 265.061C176.461 264.905 178.859 265.061 180.887 266.104C180.722 262.8 180.814 259.489 181.163 256.199L181.716 251.017C181.84 249.512 182.072 248.017 182.409 246.545C182.711 245.356 183.149 244.209 183.483 243.026C184.656 238.855 184.442 234.404 184.218 230.061C184.103 227.83 183.243 225.635 182.232 223.649C181.866 222.911 181.448 222.201 180.981 221.522C179.758 219.838 178.13 218.492 176.246 217.607C174.363 216.723 172.287 216.33 170.21 216.466C169.945 216.474 169.684 216.53 169.439 216.632C168.999 216.914 168.655 217.323 168.454 217.805C167.375 219.744 165.81 221.368 163.913 222.518Z" fill="#3F3D56"/>
<path d="M153.611 210.299C153.846 209.777 154.476 209.584 154.862 209.167C155.602 208.375 155.269 207.108 155.383 206.04C155.571 204.476 156.869 203.167 158.355 202.609C159.87 202.123 161.482 202.021 163.047 202.312C163.8 202.367 164.527 202.609 165.163 203.016C165.434 203.214 165.684 203.47 165.94 203.652C166.405 203.933 166.963 204.022 167.492 203.898C168.022 203.774 168.483 203.448 168.776 202.99C166.93 200.769 164.887 198.423 162.082 197.74C161.12 197.544 160.14 197.451 159.158 197.464C157.86 197.438 156.52 197.417 155.321 197.912C153.689 198.585 152.542 200.133 151.953 201.801C151.438 203.492 151.163 205.247 151.135 207.014C151.028 208.194 151.028 209.38 151.135 210.559C151.336 212.17 151.935 213.705 152.876 215.027C153.003 215.232 153.183 215.4 153.397 215.512C155.774 216.554 153.418 210.731 153.611 210.299Z" fill="#3F3D56"/>
<path d="M168.505 201.702C168.219 199.247 166.467 197.219 164.606 195.587C163.106 194.173 161.319 193.097 159.367 192.434C157.402 191.855 155.139 191.98 153.455 193.153C152.1 194.097 151.24 195.598 150.578 197.11C149.708 198.894 149.277 200.86 149.321 202.844C149.452 204.815 150.411 206.811 152.121 207.807C152.736 206.9 153.805 206.431 154.832 206.06C159.308 204.362 163.872 202.907 168.505 201.702Z" fill="#FED253"/>
<path opacity="0.1" d="M152.694 200.68C152.861 200.68 152.97 200.852 153.054 200.993C153.478 201.654 153.843 202.352 154.143 203.078C153.533 203.208 152.485 203.354 152.183 202.817C152.021 202.546 152.214 200.654 152.694 200.68Z" fill="black"/>
<path opacity="0.1" d="M164.576 199.502C164.451 199.622 164.305 199.377 164.305 199.2V197.177C164.302 197.121 164.314 197.065 164.342 197.015C164.363 196.991 164.39 196.97 164.419 196.956C164.449 196.942 164.481 196.934 164.514 196.932C164.936 196.885 165.285 197.245 165.556 197.589C165.968 198.146 166.326 198.742 166.625 199.366L164.42 199.299" fill="black"/>
<path d="M192.095 232.996C192.575 232.541 193.087 232.121 193.627 231.74C195.071 230.775 196.818 230.395 198.439 229.779C200.06 229.164 201.708 228.169 202.338 226.553C202.654 225.542 202.757 224.477 202.641 223.425C202.656 222.984 202.578 222.545 202.411 222.137C202.213 221.776 201.93 221.469 201.588 221.241C199.388 219.614 196.437 219.484 193.706 219.651C187.683 220.024 181.78 221.498 176.289 223.998C175.999 224.094 175.744 224.276 175.559 224.52C175.452 224.745 175.404 224.995 175.418 225.244C175.321 226.781 175.521 228.323 176.007 229.785C176.727 231.64 178.207 233.137 178.828 235.029C179.109 235.879 179.203 236.781 179.448 237.635C179.649 238.518 180.171 239.295 180.913 239.815C182.972 241.045 184.917 239.392 186.345 238.11L192.095 232.996Z" fill="#3F3D56"/>
<path d="M165.128 240.216L162.485 234.45C162.097 233.651 161.763 232.827 161.484 231.984C161.182 230.978 161.036 229.936 160.754 228.924C159.826 225.557 157.486 222.752 156.344 219.452C156.272 219.154 156.125 218.88 155.917 218.655C155.75 218.537 155.559 218.457 155.359 218.421C155.158 218.385 154.951 218.394 154.754 218.446C153.159 218.722 151.913 219.937 150.453 220.625C149.776 220.938 149.046 221.146 148.368 221.506C148.029 221.667 147.729 221.898 147.488 222.185C147.247 222.472 147.071 222.808 146.971 223.169C146.809 223.967 147.206 224.733 147.539 225.51C148.957 228.711 149.28 232.287 149.343 235.79C149.39 238.146 149.27 240.674 147.878 242.567C145.204 246.216 146.914 251.575 147.915 255.99C148.034 256.512 148.175 257.075 148.259 257.627C148.347 258.319 148.387 259.015 148.379 259.712C148.379 262.053 148.248 264.467 147.268 266.588C148.236 267.103 149.302 267.405 150.396 267.475C153.423 267.86 156.462 268.131 159.514 268.288C160.47 268.378 161.434 268.329 162.375 268.142C163.494 267.84 164.48 267.173 165.178 266.248C165.875 265.323 166.245 264.192 166.228 263.033C166.395 264.477 166.702 266.046 167.75 267.047C168.798 268.048 170.325 268.199 171.748 268.277C175.765 268.49 179.792 268.377 183.791 267.939C184.046 267.927 184.297 267.869 184.531 267.767C185.302 267.381 185.344 266.317 185.282 265.462C185.167 263.862 185.047 262.262 184.854 260.672C184.69 259.658 184.607 258.633 184.604 257.606C184.683 256.55 184.858 255.503 185.125 254.479C185.824 251.226 186.376 247.905 186.142 244.574C186.049 243.762 186.016 242.945 186.043 242.129C186.178 240.289 187.148 238.537 186.965 236.707C186.444 231.328 186.022 225.807 184.52 220.615C184.249 219.687 183.905 218.691 183.097 218.159C182.055 217.461 180.59 217.826 179.396 217.383C178.836 217.122 178.303 216.806 177.806 216.439C176.726 215.764 175.487 215.383 174.214 215.334C173.255 215.297 172.186 215.511 171.608 216.283C171.34 216.717 171.162 217.201 171.086 217.706C170.331 220.886 169.444 224.029 168.558 227.173L167.708 230.186L165.43 238.276C165.206 239.137 165.357 239.402 165.128 240.216Z" fill="#F9A826"/>
<path d="M178.458 208.65L228.883 261.641V266.134H206.399L168.506 216.678" fill="#F1C0C0"/>
<path opacity="0.1" d="M178.458 208.65L228.883 261.641V266.134H206.399L168.506 216.678" fill="black"/>
<path opacity="0.1" d="M169.309 215.98L169.47 216.038L206.723 261.641H228.883V266.135H206.399L168.506 216.679L169.309 215.98Z" fill="black"/>
<path d="M175.11 217.097C173.285 217.894 171.258 218.916 170.71 220.834C170.602 221.171 170.579 221.529 170.642 221.877C170.776 222.286 171.03 222.645 171.372 222.906C171.713 223.168 172.126 223.32 172.556 223.342C173.414 223.363 174.268 223.206 175.063 222.883L185.828 219.328C186.12 219.234 186.454 219.093 186.527 218.806C186.545 218.626 186.509 218.444 186.422 218.285C186.089 217.472 185.76 215.809 185.062 215.241C184.488 214.782 183.352 214.944 182.658 214.954C179.989 214.975 177.482 216.054 175.11 217.097Z" fill="#F9A826"/>
<path d="M184.707 219.749C186.521 219.744 188.324 220.024 190.05 220.578C191.785 221.141 193.321 222.191 194.476 223.602C194.813 223.996 195.052 224.464 195.175 224.968C195.279 225.489 196.979 225.802 196.603 226.156C197.745 225.974 197.474 226.511 198.631 226.5C199.788 226.49 201.04 226.193 201.733 225.27C202.215 224.512 202.429 223.615 202.343 222.721C202.358 222.102 202.241 221.487 201.999 220.917C201.477 219.822 200.278 219.233 199.173 218.728L189.863 214.469C189.323 214.181 188.743 213.976 188.143 213.859C187.637 213.811 187.128 213.823 186.626 213.895L182.408 214.38C183.33 214.977 184.081 215.804 184.587 216.779C185.092 217.754 185.335 218.844 185.291 219.942" fill="#3F3D56"/>
</g>
<defs>
<clipPath id="clip0_517_13">
<rect width="614" height="377.668" fill="white"/>
</clipPath>
</defs>
</svg>
